<svg xmlns="http://www.w3.org/2000/svg" xmlns:xlink="http://www.w3.org/1999/xlink" width="135.699" height="166.59" viewBox="0 0 135.699 166.59"><defs><filter id="a" x="0.263" y="48.164" width="135.436" height="116.124" filterUnits="userSpaceOnUse"><feOffset dy="3" input="SourceAlpha"/><feGaussianBlur stdDeviation="3" result="b"/><feFlood flood-opacity="0.161"/><feComposite operator="in" in2="b"/><feComposite in="SourceGraphic"/></filter><filter id="c" x="31.823" y="76.734" width="95.968" height="89.856" filterUnits="userSpaceOnUse"><feOffset dy="3" input="SourceAlpha"/><feGaussianBlur stdDeviation="10" result="d"/><feFlood flood-opacity="0.161"/><feComposite operator="in" in2="d"/><feComposite in="SourceGraphic"/></filter></defs><g transform="translate(-141 -142.069)"><path d="M486.863,211.11h-1.11V210h-.216v1.11h-1.11v.217h1.11v1.11h.216v-1.11h1.11Z" transform="translate(-235.25 -36.648)" fill="#f2f2f2"/><g transform="translate(141 142.069)"><g transform="translate(0)"><g transform="matrix(0.839, -0.545, 0.545, 0.839, 0, 37.804)"><path d="M6.3,0a3.669,3.669,0,0,0-2.93,1.457A2.416,2.416,0,0,0,0,3.675H9.976A3.675,3.675,0,0,0,6.3,0Z" transform="translate(25.783 2.543)" fill="#e6e6e6"/><path d="M45.864,0H2.2A2.208,2.208,0,0,0,.065,1.67h0A2.2,2.2,0,0,0,0,2.2V20.657l.142.125.118.1V2.2A1.946,1.946,0,0,1,2.2.259H45.864A1.945,1.945,0,0,1,47.808,2.2V24.659h.124a1.258,1.258,0,0,1,.136.006V2.2A2.206,2.206,0,0,0,45.864,0Z" transform="translate(0 0)" fill="#3f3d56"/><circle cx="5.919" cy="5.919" r="5.919" transform="translate(4.31 5.092)" fill="#03dac6"/><path d="M42.87,19.577H2.274a2.078,2.078,0,0,1-1.363-.515L0,18.258l.139-.2.252-.364L11.333,1.94,12.456.323a.751.751,0,0,1,1.234,0L17.1,5.239h0l2.009,2.892,4.8,6.9L31.183,4.653a.751.751,0,0,1,1.231,0l4.666,6.66.268.383L42.7,19.334Z" transform="translate(3.043 5.083)" fill="#3f3d56"/><path d="M7.774,0A4.527,4.527,0,0,0,4.159,1.8,2.981,2.981,0,0,0,0,4.535H12.308A4.535,4.535,0,0,0,7.774,0Z" transform="translate(16.455 8.68)" fill="#ccc"/></g><g transform="translate(22.349 1.678) rotate(-2)"><path d="M6.3,0a3.669,3.669,0,0,0-2.93,1.457A2.416,2.416,0,0,0,0,3.675H9.976A3.675,3.675,0,0,0,6.3,0Z" transform="translate(25.783 2.543)" fill="#e6e6e6"/><path d="M45.864,0H2.2A2.208,2.208,0,0,0,.065,1.67h0A2.2,2.2,0,0,0,0,2.2V20.657l.142.125.118.1V2.2A1.946,1.946,0,0,1,2.2.259H45.864A1.945,1.945,0,0,1,47.808,2.2V24.659h.124a1.258,1.258,0,0,1,.136.006V2.2A2.206,2.206,0,0,0,45.864,0Z" transform="translate(0 0)" fill="#3f3d56"/><circle cx="5.919" cy="5.919" r="5.919" transform="translate(4.31 5.092)" fill="#6c63ff"/><path d="M42.87,19.577H2.274a2.078,2.078,0,0,1-1.363-.515L0,18.258l.139-.2.252-.364L11.333,1.94,12.456.323a.751.751,0,0,1,1.234,0L17.1,5.239h0l2.009,2.892,4.8,6.9L31.183,4.653a.751.751,0,0,1,1.231,0l4.666,6.66.268.383L42.7,19.334Z" transform="translate(3.043 5.083)" fill="#3f3d56"/><path d="M7.774,0A4.527,4.527,0,0,0,4.159,1.8,2.981,2.981,0,0,0,0,4.535H12.308A4.535,4.535,0,0,0,7.774,0Z" transform="translate(16.455 8.68)" fill="#ccc"/></g><path d="M600.906,261.72l-53.845-6.787c-2.44-20.3,1.247-40.119,7.542-59.828l53.845,6.787A110.733,110.733,0,0,0,600.906,261.72Z" transform="translate(-484.332 -164.775)" fill="#f2f2f2"/><rect width="33.166" height="3.563" transform="matrix(0.992, 0.125, -0.125, 0.992, 77.793, 37.494)" fill="#6c63ff"/><rect width="44.952" height="1.782" transform="matrix(0.992, 0.125, -0.125, 0.992, 70.187, 45.237)" fill="#6c63ff" opacity="0.3"/><rect width="44.952" height="1.782" transform="matrix(0.992, 0.125, -0.125, 0.992, 69.467, 50.948)" fill="#6c63ff" opacity="0.3"/><rect width="44.952" height="1.782" transform="matrix(0.992, 0.125, -0.125, 0.992, 68.747, 56.659)" fill="#6c63ff" opacity="0.3"/><rect width="44.952" height="1.782" transform="matrix(0.992, 0.125, -0.125, 0.992, 68.027, 62.37)" fill="#6c63ff" opacity="0.3"/><rect width="44.952" height="1.782" transform="matrix(0.992, 0.125, -0.125, 0.992, 67.308, 68.081)" fill="#6c63ff" opacity="0.3"/><rect width="44.952" height="1.782" transform="matrix(0.992, 0.125, -0.125, 0.992, 66.588, 73.791)" fill="#6c63ff" opacity="0.3"/><rect width="44.952" height="1.782" transform="matrix(0.992, 0.125, -0.125, 0.992, 65.868, 79.503)" fill="#6c63ff" opacity="0.3"/><path d="M494.722,129.629l-50.375-20.191c2.776-20.257,11.358-38.5,22.435-55.973l50.375,20.191A110.733,110.733,0,0,0,494.722,129.629Z" transform="translate(-403.647 -52.683)" fill="#e6e6e6"/><rect width="33.166" height="3.563" transform="translate(68.601 9.616) rotate(21.841)" fill="#03dac6"/><rect width="44.952" height="1.782" transform="translate(59.282 15.183) rotate(21.841)" fill="#03dac6" opacity="0.3"/><rect width="44.952" height="1.782" transform="translate(57.141 20.526) rotate(21.841)" fill="#03dac6" opacity="0.3"/><rect width="44.952" height="1.782" transform="translate(54.999 25.869) rotate(21.841)" fill="#03dac6" opacity="0.3"/><rect width="44.952" height="1.782" transform="translate(52.858 31.211) rotate(21.841)" fill="#03dac6" opacity="0.3"/><rect width="44.952" height="1.782" transform="translate(50.716 36.554) rotate(21.841)" fill="#03dac6" opacity="0.3"/><rect width="44.952" height="1.782" transform="translate(48.575 41.897) rotate(21.841)" fill="#03dac6" opacity="0.3"/><rect width="44.952" height="1.782" transform="translate(46.433 47.24) rotate(21.841)" fill="#03dac6" opacity="0.3"/><path d="M407.735,213.114H353.464c-4.96-19.836-3.781-39.96,0-60.3h54.271A110.736,110.736,0,0,0,407.735,213.114Z" transform="translate(-329.118 -131.305)" fill="#f2f2f2"/><path d="M0,0H33.166V3.563H0Z" transform="translate(32.706 27.674)" fill="#6c63ff"/><rect width="44.952" height="1.782" transform="translate(26.128 36.308)" fill="#6c63ff" opacity="0.3"/><rect width="44.952" height="1.782" transform="translate(26.128 42.064)" fill="#6c63ff" opacity="0.3"/><rect width="44.952" height="1.782" transform="translate(26.128 47.82)" fill="#6c63ff" opacity="0.3"/><rect width="44.952" height="1.782" transform="translate(26.128 53.576)" fill="#6c63ff" opacity="0.3"/><rect width="44.952" height="1.782" transform="translate(26.128 59.332)" fill="#6c63ff" opacity="0.3"/><rect width="44.952" height="1.782" transform="translate(26.128 65.088)" fill="#6c63ff" opacity="0.3"/><rect width="44.952" height="1.782" transform="translate(26.128 70.845)" fill="#6c63ff" opacity="0.3"/><g transform="matrix(1, 0, 0, 1, 0, 0)" filter="url(#a)"><path d="M326.425,324.961l-18.7-14.536a2.134,2.134,0,0,0-1.85-1.07H295.786a2.134,2.134,0,0,0-2.134,2.134v89.067a6.923,6.923,0,0,0,6.923,6.923h103.59a6.923,6.923,0,0,0,6.923-6.923v-69.3a6.292,6.292,0,0,0-6.292-6.292Z" transform="translate(-284.39 -255.19)" fill="#3f3d56"/></g><path d="M0,0H18.79V6.576H0Z" transform="translate(98.866 131.009)" fill="#03dac6"/></g><circle cx="1.46" cy="1.46" r="1.46" transform="translate(69.562 90.434)" fill="#ff6584"/><path d="M551.713,108.738a4.65,4.65,0,0,1-.492.413,26.128,26.128,0,0,0,16.869,12.557v-.651A25.513,25.513,0,0,1,551.713,108.738Z" transform="translate(-445.309 -34.705)" fill="#6c63ff"/><path d="M491.175,115.4h-.684a37.9,37.9,0,0,0,29.538,23.584v-.647A37.248,37.248,0,0,1,491.175,115.4Z" transform="translate(-397.249 -39.976)" fill="#6c63ff"/><path d="M430.85,115.4h-.659a49.97,49.97,0,0,0,42.117,35.7v-.636A49.335,49.335,0,0,1,430.85,115.4Z" transform="translate(-349.528 -39.976)" fill="#6c63ff"/><path d="M263.26,158.38h-.38V158h-.074v.38h-.38v.074h.38v.38h.074v-.38h.38Z" transform="translate(-197.036 -55.675)" fill="#f2f2f2"/><path d="M386.26,67.38h-.38V67h-.074v.38h-.38v.074h.38v.38h.074v-.38h.38Z" transform="translate(-294.376 16.341)" fill="#f2f2f2"/><path d="M365.26,177.38h-.38V177h-.074v.38h-.38v.074h.38v.38h.074v-.38h.38Z" transform="translate(-277.757 -70.711)" fill="#f2f2f2"/><path d="M485.26,210.38h-.38V210h-.074v.38h-.38v.074h.38v.38h.074v-.38h.38Z" transform="translate(-372.723 -96.827)" fill="#f2f2f2"/><circle cx="0.834" cy="0.834" r="0.834" transform="translate(107.322 94.606)" fill="#ff6584"/><path d="M410.73,277.818l-.459.14c.277.918.526,1.859.736,2.8l.469-.106C411.262,279.7,411.009,278.748,410.73,277.818Z" transform="translate(-333.764 -168.513)" fill="#e6e6e6"/><path d="M400.907,251.6l-.436.2c.4.874.776,1.771,1.116,2.668l.449-.169C401.691,253.39,401.314,252.48,400.907,251.6Z" transform="translate(-326.008 -147.763)" fill="#e6e6e6"/><path d="M387.626,227.018l-.4.257c.515.809,1.01,1.648,1.469,2.489l.421-.229C388.648,228.683,388.147,227.836,387.626,227.018Z" transform="translate(-315.522 -128.31)" fill="#e6e6e6"/><path d="M371.116,204.488l-.365.311c.622.73,1.227,1.494,1.8,2.266l.384-.286C372.357,206,371.746,205.227,371.116,204.488Z" transform="translate(-302.488 -110.48)" fill="#e6e6e6"/><path d="M351.71,184.428l-.319.357c.718.64,1.421,1.314,2.09,2l.344-.336C353.148,185.755,352.436,185.075,351.71,184.428Z" transform="translate(-287.167 -94.605)" fill="#e6e6e6"/><g transform="translate(13.549 44.903)"><path d="M281.306,230.4h-.4V230h-.078v.4h-.4v.078h.4v.4h.078v-.4h.4Z" transform="translate(-266.275 -227.535)" fill="#f2f2f2"/><path d="M416.91,305.158l-.5.077c.156,1,.279,2.02.37,3.03l.5-.044C417.194,307.2,417.069,306.168,416.91,305.158Z" transform="translate(-393.144 -305.158)" fill="#e6e6e6"/><path d="M418.161,515.869c.082-.492.157-.994.223-1.493l.5.067c-.067.5-.143,1.012-.226,1.51Z" transform="translate(-394.508 -468.339)" fill="#e6e6e6"/><path d="M411.752,537.707l.484.151c.3-.978.578-1.979.816-2.978l-.493-.116C412.323,535.751,412.053,536.74,411.752,537.707Z" transform="translate(-389.51 -484.24)" fill="#e6e6e6"/><path d="M401.71,564.033l.459.215c.437-.926.845-1.88,1.216-2.835l-.472-.184C402.546,562.174,402.142,563.117,401.71,564.033Z" transform="translate(-381.677 -504.882)" fill="#e6e6e6"/><path d="M388.2,588.937l.424.275c.56-.858,1.1-1.748,1.6-2.643l-.441-.247C389.285,587.208,388.753,588.087,388.2,588.937Z" transform="translate(-371.139 -524.454)" fill="#e6e6e6"/><path d="M371.482,611.938l.383.332c.673-.777,1.326-1.584,1.944-2.4l-.405-.3C372.795,610.374,372.149,611.172,371.482,611.938Z" transform="translate(-358.101 -542.583)" fill="#e6e6e6"/><path d="M351.907,632.585l.333.38c.774-.675,1.53-1.387,2.253-2.111l-.358-.358C353.421,631.213,352.671,631.915,351.907,632.585Z" transform="translate(-342.833 -558.908)" fill="#e6e6e6"/><path d="M329.855,650.521l.279.423c.854-.564,1.7-1.165,2.517-1.785l-.306-.4C331.539,649.37,330.7,649.965,329.855,650.521Z" transform="translate(-325.634 -573.149)" fill="#e6e6e6"/><path d="M312.539,664.456c-.612.346-1.237.68-1.868,1v-.568c.546-.277,1.087-.57,1.617-.867Z" transform="translate(-310.671 -585.053)" fill="#e6e6e6"/><path d="M418.836,333.431l.506-.009c.009.511.01,1.024,0,1.526l-.506-.008C418.846,334.444,418.845,333.936,418.836,333.431Z" transform="translate(-395.035 -327.203)" fill="#e6e6e6"/><path d="M470.534,592.972a15.67,15.67,0,0,1-1.654-6.2c-.379-3.788-.135-10.172,3.176-19.077a38.471,38.471,0,0,0-1.524-30.619l.381-.221a33.788,33.788,0,0,1,3.188,9.031,39.4,39.4,0,0,1-1.632,21.962c-6.262,16.842-1.607,24.815-1.559,24.894Z" transform="translate(-433.962 -485.872)" fill="#03dac6"/><circle cx="2.861" cy="2.861" r="2.861" transform="translate(31.258 44.493)" fill="#6c63ff"/><circle cx="2.861" cy="2.861" r="2.861" transform="translate(40.28 55.055)" fill="#03dac6"/><circle cx="2.861" cy="2.861" r="2.861" transform="translate(34.118 62.096)" fill="#6c63ff"/><circle cx="2.861" cy="2.861" r="2.861" transform="translate(41.6 68.038)" fill="#6c63ff"/><circle cx="2.861" cy="2.861" r="2.861" transform="translate(31.918 77.279)" fill="#03dac6"/><path d="M483.1,748.68s-2.861-7.041,5.721-12.322Z" transform="translate(-444.802 -641.475)" fill="#03dac6"/><path d="M428.406,765.462s-1.3-7.488-11.378-7.424Z" transform="translate(-393.624 -658.384)" fill="#03dac6"/><circle cx="17.604" cy="17.604" r="17.604" transform="translate(5.789 8.846)" fill="#03dac6" opacity="0.2"/><circle cx="12.397" cy="12.397" r="12.397" transform="translate(10.996 14.052)" fill="#03dac6" opacity="0.2"/><circle cx="8.182" cy="8.182" r="8.182" transform="translate(15.211 18.267)" fill="#6c63ff"/><path d="M413.195,412.063a1.488,1.488,0,1,0-2.427,1.153l-.548,3.835h2.975l-.548-3.835A1.485,1.485,0,0,0,413.195,412.063Z" transform="translate(-388.314 -387.379)" fill="#fff"/><g transform="matrix(1, 0, 0, 1, -13.55, -44.9)" filter="url(#c)"><path d="M574.386,511.409a5.947,5.947,0,1,0-1.866-2.316l-15.558,12.954-2.072-2.459-.931.623-1.036-1.229.851-.717-1.036-1.229-1.324,1.115.638.756-1.418,1.2-.638-.756-2.08,1.753.956,1.135.756-.637,1.036,1.229-.946.8,1.912,2.27-2.27,1.912,2.311,2.742Zm3.885-8.69a3.935,3.935,0,1,1-4.255,3.585A3.935,3.935,0,0,1,578.27,502.719Z" transform="translate(-486.09 -396.96)" fill="#6c63ff"/></g></g></g></g></svg>