<svg xmlns="http://www.w3.org/2000/svg" xmlns:xlink="http://www.w3.org/1999/xlink" width="74.269" height="24.322" viewBox="0 0 74.269 24.322"><defs><linearGradient id="a" x1="0.5" x2="0.5" y2="1" gradientUnits="objectBoundingBox"><stop offset="0" stop-color="#03dac6"/><stop offset="1" stop-color="#5617e9"/></linearGradient></defs><g transform="translate(-72.653 -101)"><path d="M7.054,18.242a1.016,1.016,0,0,0,1.013,1.013H9.081V22.8a1.52,1.52,0,0,0,3.04,0V19.255h2.027V22.8a1.52,1.52,0,1,0,3.04,0V19.255H18.2a1.016,1.016,0,0,0,1.013-1.013V8.107H7.054ZM4.52,8.107A1.518,1.518,0,0,0,3,9.628v7.094a1.52,1.52,0,1,0,3.04,0V9.628A1.518,1.518,0,0,0,4.52,8.107Zm17.228,0a1.518,1.518,0,0,0-1.52,1.52v7.094a1.52,1.52,0,0,0,3.04,0V9.628A1.518,1.518,0,0,0,21.748,8.107ZM16.712,2.189,18.029.872a.5.5,0,0,0,0-.72.5.5,0,0,0-.72,0l-1.5,1.5a5.918,5.918,0,0,0-2.675-.638,6,6,0,0,0-2.7.638L8.929.152a.5.5,0,0,0-.72,0,.5.5,0,0,0,0,.72L9.537,2.2A6.064,6.064,0,0,0,7.054,7.094H19.215A6.046,6.046,0,0,0,16.712,2.189Zm-5.6,2.878H10.094V4.054h1.013Zm5.067,0H15.161V4.054h1.013Z" transform="translate(69.653 101)" fill="url(#a)"/><path d="M7.054,18.242a1.016,1.016,0,0,0,1.013,1.013H9.081V22.8a1.52,1.52,0,0,0,3.04,0V19.255h2.027V22.8a1.52,1.52,0,1,0,3.04,0V19.255H18.2a1.016,1.016,0,0,0,1.013-1.013V8.107H7.054ZM4.52,8.107A1.518,1.518,0,0,0,3,9.628v7.094a1.52,1.52,0,1,0,3.04,0V9.628A1.518,1.518,0,0,0,4.52,8.107Zm17.228,0a1.518,1.518,0,0,0-1.52,1.52v7.094a1.52,1.52,0,0,0,3.04,0V9.628A1.518,1.518,0,0,0,21.748,8.107ZM16.712,2.189,18.029.872a.5.5,0,0,0,0-.72.5.5,0,0,0-.72,0l-1.5,1.5a5.918,5.918,0,0,0-2.675-.638,6,6,0,0,0-2.7.638L8.929.152a.5.5,0,0,0-.72,0,.5.5,0,0,0,0,.72L9.537,2.2A6.064,6.064,0,0,0,7.054,7.094H19.215A6.046,6.046,0,0,0,16.712,2.189Zm-5.6,2.878H10.094V4.054h1.013Zm5.067,0H15.161V4.054h1.013Z" transform="translate(123.653 101)" fill="url(#a)"/><g transform="translate(88.653 101)" stroke="rgba(0,0,0,0)" stroke-width="1" opacity="0" fill="url(#a)"><rect width="24" height="24" stroke="none"/><rect x="0.5" y="0.5" width="23" height="23" fill="none"/></g><path d="M6.45,17.45,1,12,6.45,6.55,7.86,7.96,4.83,11H19.17L16.14,7.96l1.41-1.41L23,12l-5.45,5.45-1.41-1.41L19.17,13H4.83l3.03,3.04Z" transform="translate(97.653 101.45)" fill="url(#a)"/></g></svg>