<svg xmlns="http://www.w3.org/2000/svg" xmlns:xlink="http://www.w3.org/1999/xlink" width="82.479" height="158.938" viewBox="0 0 82.479 158.938"><defs><linearGradient id="a" x1="0.5" x2="0.5" y2="1" gradientUnits="objectBoundingBox"><stop offset="0" stop-color="#03dac6"/><stop offset="1" stop-color="#5617e9"/></linearGradient><filter id="b" x="0" y="0" width="82.479" height="158.938" filterUnits="userSpaceOnUse"><feOffset dy="3" input="SourceAlpha"/><feGaussianBlur stdDeviation="3" result="c"/><feFlood flood-opacity="0.161"/><feComposite operator="in" in2="c"/><feComposite in="SourceGraphic"/></filter></defs><g transform="translate(9 6)"><g transform="matrix(1, 0, 0, 1, -9, -6)" filter="url(#b)"><path d="M56.268,268.09H8.207A8.2,8.2,0,0,0,0,276.273V400.845a8.2,8.2,0,0,0,8.205,8.183H56.268a8.2,8.2,0,0,0,8.211-8.177V276.278A8.2,8.2,0,0,0,56.268,268.09Zm5.948,131.436a5.889,5.889,0,0,1-5.9,5.881H8.157a5.887,5.887,0,0,1-5.9-5.881V276.42a5.887,5.887,0,0,1,5.9-5.881H56.318a5.889,5.889,0,0,1,5.9,5.881Z" transform="translate(9 -262.09)" fill="url(#a)"/></g><path d="M162.036,289.348a1.688,1.688,0,1,1-1.688-1.688A1.688,1.688,0,0,1,162.036,289.348Z" transform="translate(-128.122 -283.893)" fill="url(#a)"/></g></svg>