<svg xmlns="http://www.w3.org/2000/svg" xmlns:xlink="http://www.w3.org/1999/xlink" width="86.202" height="158.548" viewBox="0 0 86.202 158.548"><defs><linearGradient id="a" x1="0.5" x2="0.5" y2="1" gradientUnits="objectBoundingBox"><stop offset="0" stop-color="#03dac6"/><stop offset="1" stop-color="#5617e9"/></linearGradient><filter id="c" x="0" y="0" width="86.202" height="158.548" filterUnits="userSpaceOnUse"><feOffset dy="3" input="SourceAlpha"/><feGaussianBlur stdDeviation="3" result="d"/><feFlood flood-opacity="0.161"/><feComposite operator="in" in2="d"/><feComposite in="SourceGraphic"/></filter></defs><g transform="translate(9 6)"><path d="M1070.608,7.66V8.909c0,2.62-1.636,4.746-3.657,4.746h-23.694c-2.021,0-3.657-2.117-3.657-4.746V7.66Z" transform="translate(-1021.134 -6.186)" fill="url(#a)"/><g transform="matrix(1, 0, 0, 1, -9, -6)" filter="url(#c)"><path d="M1000.371,0H955.16a11.5,11.5,0,0,0-11.5,11.5V129.049a11.5,11.5,0,0,0,11.5,11.5h45.213a11.5,11.5,0,0,0,11.491-11.5V11.5A11.5,11.5,0,0,0,1000.371,0Zm8.411,129.729a7.863,7.863,0,0,1-7.863,7.863H954.275a7.863,7.863,0,0,1-7.855-7.863V10.55a7.861,7.861,0,0,1,7.855-7.855h46.652a7.861,7.861,0,0,1,7.855,7.855Z" transform="translate(-934.66 6)" fill="url(#a)"/></g></g></svg>