<svg xmlns="http://www.w3.org/2000/svg" width="17.047" height="17.047" viewBox="0 0 17.047 17.047"><g transform="translate(0)"><g transform="translate(0)" fill="#6c63ff" stroke="rgba(0,0,0,0)" stroke-width="1" opacity="0"><rect width="17.047" height="17.047" stroke="none"/><rect x="0.5" y="0.5" width="16.047" height="16.047" fill="none"/></g><path d="M5.841,3a2.84,2.84,0,0,1,.71,5.59V10.2a2.7,2.7,0,0,1,.739.305L10.5,7.29a2.79,2.79,0,0,1-.4-1.449,2.841,2.841,0,1,1,2.841,2.841,2.712,2.712,0,0,1-1.421-.391L8.292,11.523a2.712,2.712,0,0,1,.391,1.421A2.841,2.841,0,1,1,5.131,10.2V8.59A2.84,2.84,0,0,1,5.841,3m7.1,7.1A2.841,2.841,0,1,1,10.1,12.944,2.841,2.841,0,0,1,12.944,10.1m0,1.421a1.421,1.421,0,1,0,1.421,1.421A1.421,1.421,0,0,0,12.944,11.523Z" transform="translate(-0.869 -0.869)" fill="#6c63ff" stroke="rgba(0,0,0,0)" stroke-width="1"/></g></svg>