<svg xmlns="http://www.w3.org/2000/svg" width="20.548" height="20.548" viewBox="0 0 20.548 20.548"><g fill="#6c63ff" stroke="rgba(0,0,0,0)" stroke-width="1" opacity="0"><rect width="20.548" height="20.548" stroke="none"/><rect x="0.5" y="0.5" width="19.548" height="19.548" fill="none"/></g><path d="M14.842,6.281h4.281v8.562H14.842v1.712a.856.856,0,0,0,.856.856h1.712v1.712h-2.14c-.471,0-1.284-.385-1.284-.856,0,.471-.813.856-1.284.856h-2.14V17.411h1.712a.856.856,0,0,0,.856-.856V4.568a.856.856,0,0,0-.856-.856H10.562V2H12.7c.471,0,1.284.385,1.284.856,0-.471.813-.856,1.284-.856h2.14V3.712H15.7a.856.856,0,0,0-.856.856V6.281M2,6.281h9.418V7.993H3.712V13.13h7.705v1.712H2V6.281M17.411,13.13V7.993H14.842V13.13h2.568M7.565,10.562a1.284,1.284,0,1,0-1.284,1.284,1.284,1.284,0,0,0,1.284-1.284m3.853-.95A1.279,1.279,0,0,0,9.6,9.705a1.282,1.282,0,0,0,1.815,1.806Z" transform="translate(-0.288 -0.288)" fill="#6c63ff" stroke="rgba(0,0,0,0)" stroke-width="1"/></svg>