<svg xmlns="http://www.w3.org/2000/svg" xmlns:xlink="http://www.w3.org/1999/xlink" width="34.617" height="34.617" viewBox="0 0 34.617 34.617"><defs><linearGradient id="a" x1="0.5" x2="0.5" y2="1" gradientUnits="objectBoundingBox"><stop offset="0" stop-color="#03dac6"/><stop offset="1" stop-color="#5617e9"/></linearGradient></defs><path d="M13.389,4.092H4.734v8.654h8.654Zm2.164-2.164V14.909H2.571V1.928ZM6.9,6.255h4.327v4.327H6.9ZM35.024,4.092H26.37v8.654h8.654V4.092Zm2.164-2.164V14.909H24.206V1.928H37.188ZM28.533,6.255h4.327v4.327H28.533ZM13.389,25.727H4.734v8.654h8.654Zm2.164-2.164V36.545H2.571V23.564ZM6.9,27.891h4.327v4.327H6.9ZM17.716,1.928h2.164V4.092H17.716Zm2.164,2.164h2.164V6.255H19.879ZM17.716,6.255h2.164V8.419H17.716Zm2.164,2.164h2.164v2.164H19.879Zm-2.164,2.164h2.164v2.164H17.716Zm2.164,2.164h2.164v2.164H19.879Zm-2.164,2.164h2.164v2.164H17.716Zm0,4.327h2.164V21.4H17.716ZM19.879,21.4h2.164v2.164H19.879Zm-2.164,2.164h2.164v2.164H17.716Zm2.164,2.164h2.164v2.164H19.879Zm-2.164,2.164h2.164v2.164H17.716Zm2.164,2.164h2.164v2.164H19.879Zm-2.164,2.164h2.164v2.164H17.716Zm2.164,2.164h2.164v2.164H19.879ZM35.024,19.237h2.164V21.4H35.024Zm-30.29,0H6.9V21.4H4.734ZM6.9,17.073H9.061v2.164H6.9Zm-4.327,0H4.734v2.164H2.571Zm8.654,0h2.164v2.164H11.225Zm2.164,2.164h2.164V21.4H13.389Zm2.164-2.164h2.164v2.164H15.552Zm6.491,2.164h2.164V21.4H22.043Zm2.164-2.164H26.37v2.164H24.206Zm2.164,2.164h2.164V21.4H26.37Zm2.164-2.164H30.7v2.164H28.534ZM30.7,19.237h2.164V21.4H30.7Zm2.164-2.164h2.164v2.164H32.861Zm2.164,6.491h2.164v2.164H35.024Zm-12.981,0h2.164v2.164H22.043ZM24.206,21.4H26.37v2.164H24.206Zm2.164,2.164h2.164v2.164H26.37Zm4.327,0h2.164v2.164H30.7ZM32.861,21.4h2.164v2.164H32.861Zm2.164,6.491h2.164v2.164H35.024Zm-12.981,0h2.164v2.164H22.043Zm2.164-2.164H26.37v2.164H24.206Zm4.327,0H30.7v2.164H28.534ZM30.7,27.891h2.164v2.164H30.7Zm2.164-2.164h2.164v2.164H32.861Zm2.164,6.491h2.164v2.164H35.024ZM24.206,30.054H26.37v2.164H24.206Zm2.164,2.164h2.164v2.164H26.37Zm2.164-2.164H30.7v2.164H28.534ZM30.7,32.218h2.164v2.164H30.7Zm-6.491,2.164H26.37v2.164H24.206Zm4.327,0H30.7v2.164H28.534Zm4.327,0h2.164v2.164H32.861Z" transform="translate(-2.571 -1.928)" fill="url(#a)"/></svg>