<svg xmlns="http://www.w3.org/2000/svg" width="44.12" height="44.12" viewBox="0 0 44.12 44.12"><g transform="translate(0)"><g transform="translate(0)" fill="#fff" stroke="rgba(0,0,0,0)" stroke-width="1" opacity="0"><rect width="44.12" height="44.12" stroke="none"/><rect x="0.5" y="0.5" width="43.12" height="43.12" fill="none"/></g><path d="M24.06,21.222H34.171L24.06,11.111V21.222M13.03,8.353H25.9l11.03,11.03V37.766a3.677,3.677,0,0,1-3.677,3.677H13.03a3.676,3.676,0,0,1-3.677-3.677V32.251h9.192v3.677L25.9,30.413,18.545,24.9v3.677H9.353V12.03A3.677,3.677,0,0,1,13.03,8.353M23.141,4.677H5.677v23.9H9.353v3.677H5.677A3.677,3.677,0,0,1,2,28.575V4.677A3.677,3.677,0,0,1,5.677,1H19.464Z" transform="translate(3.515 0.838)" fill="#fff"/></g></svg>