<svg xmlns="http://www.w3.org/2000/svg" xmlns:xlink="http://www.w3.org/1999/xlink" width="67" height="42" viewBox="0 0 67 42"><defs><linearGradient id="a" x1="0.5" x2="0.5" y2="1" gradientUnits="objectBoundingBox"><stop offset="0" stop-color="#03dac6"/><stop offset="1" stop-color="#5617e9"/></linearGradient></defs><g transform="translate(0.438)"><g transform="translate(0 4)"><g transform="translate(-0.438 0)" stroke="rgba(0,0,0,0)" stroke-width="1" opacity="0" fill="url(#a)"><rect width="33" height="33" stroke="none"/><rect x="0.5" y="0.5" width="32" height="32" fill="none"/></g><path d="M21.687,26.03H7.781V6.562H21.687m0-5.562H7.781A2.771,2.771,0,0,0,5,3.781v25.03a2.781,2.781,0,0,0,2.781,2.781H21.687a2.781,2.781,0,0,0,2.781-2.781V3.781A2.78,2.78,0,0,0,21.687,1Z" transform="translate(1.673 0.377)" fill="url(#a)"/></g><g transform="translate(33 4)"><g transform="translate(-0.438 0)" stroke="rgba(0,0,0,0)" stroke-width="1" opacity="0" fill="url(#a)"><rect width="34" height="33" stroke="none"/><rect x="0.5" y="0.5" width="33" height="32" fill="none"/></g><path d="M21.687,26.03H7.781V6.562H21.687m0-5.562H7.781A2.771,2.771,0,0,0,5,3.781v25.03a2.781,2.781,0,0,0,2.781,2.781H21.687a2.781,2.781,0,0,0,2.781-2.781V3.781A2.78,2.78,0,0,0,21.687,1Z" transform="translate(2.046 0.377)" fill="url(#a)"/></g><g transform="translate(32.563)" stroke="#1ba2d0" stroke-width="1" fill="url(#a)"><rect width="1" height="42" stroke="none"/><rect x="0.5" y="0.5" height="41" fill="none"/></g></g></svg>