<svg xmlns="http://www.w3.org/2000/svg" width="20.835" height="27.058" viewBox="0 0 20.835 27.058">
  <g id="Group_127" data-name="Group 127" transform="translate(-76 -509)">
    <path id="Icon_simple-readthedocs" data-name="Icon simple-readthedocs" d="M4.139,27.057l.749-.162c.233-.05.464-.1.7-.142.359-.07.718-.139,1.077-.205.271-.052.541-.1.813-.145l.062-.017c.282-.05.561-.1.842-.135l1.369-.2V0H9.7C8.99,0,8.284.017,7.576.039,6.8.059,6,.107,5.226.157,4.889.181,4.55.209,4.213.236H4.162V27.05ZM11.074.017V25.881c.971-.113,1.939-.205,2.911-.277a69.139,69.139,0,0,1,7.185-.17q1.908.057,3.8.216V1.694q-1.7-.387-3.414-.684C19.341.624,17.1.355,14.855.186Q12.972.049,11.076.018h0ZM23.208,16.7l-.052,0-.632-.069c-1.577-.165-3.162-.273-4.743-.328s-3.174-.034-4.761.018h-.05a.437.437,0,0,1-.152-.018.669.669,0,0,1-.3-.168.656.656,0,0,1-.176-.558.711.711,0,0,1,.061-.187.554.554,0,0,1,.117-.151.628.628,0,0,1,.161-.117,1,1,0,0,1,.2-.069h.1c.22,0,.441-.018.643-.018,1.573-.033,3.126-.033,4.7.034,1.622.068,3.229.186,4.834.372l.17.017c.05.018.1.018.152.034a.745.745,0,0,1,.287.2.732.732,0,0,1,.118.185.467.467,0,0,1,.05.2.636.636,0,0,1-.185.507.964.964,0,0,1-.152.118.656.656,0,0,1-.187.068.171.171,0,0,1-.1.018h-.053l-.054-.09Zm.039-3.056a.523.523,0,0,1-.1-.007l-.626-.08c-1.573-.2-3.161-.338-4.733-.4-1.573-.085-3.162-.1-4.751-.068l-.052-.018c-.051-.017-.1-.017-.152-.033a.642.642,0,0,1-.286-.187.859.859,0,0,1-.1-.167.667.667,0,0,1,.016-.592.639.639,0,0,1,.118-.169.369.369,0,0,1,.169-.117.481.481,0,0,1,.2-.068l.1-.018.66-.017c1.574-.018,3.127.017,4.682.1,1.622.085,3.23.237,4.835.44l.168.018.1.016a.583.583,0,0,1,.3.187.633.633,0,0,1,.186.506.345.345,0,0,1-.051.186,1.594,1.594,0,0,1-.1.169.6.6,0,0,1-.153.135.65.65,0,0,1-.185.069l-.1.016H23.35l-.1.1Zm0-3.056a.523.523,0,0,1-.1-.007l-.626-.09c-1.573-.214-3.144-.377-4.733-.483-1.573-.1-3.162-.152-4.751-.145h-.052l-.1-.018a.825.825,0,0,1-.185-.077.709.709,0,0,1-.321-.494.769.769,0,0,1,.018-.2.69.69,0,0,1,.067-.192.725.725,0,0,1,.136-.162.667.667,0,0,1,.321-.169.63.63,0,0,1,.152-.017h.641c1.622.01,3.246.072,4.852.194,1.573.118,3.127.293,4.682.515l.169.024a.374.374,0,0,1,.1.021.664.664,0,0,1,.186.09.406.406,0,0,1,.152.139,2.006,2.006,0,0,1,.1.178.663.663,0,0,1-.033.54.6.6,0,0,1-.118.165.614.614,0,0,1-.3.169.258.258,0,0,1-.1.016l-.05.006Zm0-3.057a.45.45,0,0,1-.1-.008l-.626-.1c-1.573-.254-3.144-.441-4.733-.559-1.573-.134-3.162-.2-4.751-.236h-.052l-.118-.016a.715.715,0,0,1-.186-.083.7.7,0,0,1-.158-.136,1.38,1.38,0,0,1-.106-.168,1.016,1.016,0,0,1-.05-.2.7.7,0,0,1,.2-.557.665.665,0,0,1,.315-.169.468.468,0,0,1,.152-.017c.213,0,.428.006.643.009,1.62.038,3.237.127,4.852.277,1.564.134,3.123.338,4.673.591l.152.018a.223.223,0,0,1,.1.016.756.756,0,0,1,.186.086.588.588,0,0,1,.141.134.713.713,0,0,1,.118.524.837.837,0,0,1-.069.187.581.581,0,0,1-.135.152.677.677,0,0,1-.306.168h-.152ZM5.582,6.954a.719.719,0,0,1-.306-.071.684.684,0,0,1-.371-.569.694.694,0,0,1,.034-.186.514.514,0,0,1,.1-.214.748.748,0,0,1,.185-.183.82.82,0,0,1,.272-.1l.541-.05c.743-.065,1.471-.118,2.2-.162H8.3a.612.612,0,0,1,.306.08.666.666,0,0,1,.354.585.706.706,0,0,1-.033.182.534.534,0,0,1-.1.213.622.622,0,0,1-.186.186.76.76,0,0,1-.271.1c-.117.017-.236.017-.354.034-.153.017-.322.017-.492.035l-1.317.1-.321.035a.912.912,0,0,1-.221.017l-.085-.028ZM23.231,4.473l-.1-.011L22.5,4.349c-1.573-.264-3.162-.479-4.751-.636C16.18,3.558,14.592,3.46,13,3.408h-.051l-.1-.02a.719.719,0,0,1-.186-.08.835.835,0,0,1-.152-.136.636.636,0,0,1-.135-.57,1.15,1.15,0,0,1,.083-.2.671.671,0,0,1,.136-.169.707.707,0,0,1,.321-.169.465.465,0,0,1,.152-.017l.658.017c1.573.069,3.127.169,4.683.339,1.622.167,3.229.4,4.834.676l.169.016a.17.17,0,0,1,.1.018.653.653,0,0,1,.186.083.682.682,0,0,1,.269.475.409.409,0,0,1-.017.2.353.353,0,0,1-.067.185,1.161,1.161,0,0,1-.118.152.571.571,0,0,1-.322.152l-.1.016H23.3l-.068.1ZM5.562,3.606a.663.663,0,0,1-.282-.063.649.649,0,0,1-.336-.359A.61.61,0,0,1,4.9,3.009a.665.665,0,0,1,.287-.616.676.676,0,0,1,.293-.112c.178-.016.354-.016.533-.033.733-.051,1.467-.085,2.2-.118h.054a.834.834,0,0,1,.289.085.706.706,0,0,1,.338.591.645.645,0,0,1-.034.187.973.973,0,0,1-.117.22.519.519,0,0,1-.205.169.57.57,0,0,1-.287.085,2.8,2.8,0,0,1-.372.016l-.506.035c-.457.033-.9.051-1.337.083L5.7,3.619a1.03,1.03,0,0,1-.219.017Z" transform="translate(71.862 509.001)" fill="#fff"/>
  </g>
</svg>
