<svg xmlns="http://www.w3.org/2000/svg" width="24.993" height="24.993" viewBox="0 0 24.993 24.993">
  <g id="Group_125" data-name="Group 125" transform="translate(-205 -375)">
    <path id="Icon_awesome-download" data-name="Icon awesome-download" d="M10.544,0h3.905a1.169,1.169,0,0,1,1.172,1.172v8.2H19.9a.974.974,0,0,1,.688,1.665l-7.425,7.43a.946.946,0,0,1-1.333,0L4.4,11.037a.974.974,0,0,1,.688-1.665H9.373v-8.2A1.169,1.169,0,0,1,10.544,0ZM24.993,18.354v5.467a1.169,1.169,0,0,1-1.172,1.172H1.172A1.169,1.169,0,0,1,0,23.822V18.354a1.169,1.169,0,0,1,1.172-1.172H8.333l2.392,2.392a2.5,2.5,0,0,0,3.544,0l2.392-2.392h7.161A1.169,1.169,0,0,1,24.993,18.354Zm-6.053,4.3a.976.976,0,1,0-.976.976A.979.979,0,0,0,18.94,22.65Zm3.124,0a.976.976,0,1,0-.976.976A.979.979,0,0,0,22.064,22.65Z" transform="translate(205 375)" fill="#fff"/>
  </g>
</svg>
