<svg xmlns="http://www.w3.org/2000/svg" width="27.049" height="20.287" viewBox="0 0 27.049 20.287">
  <g id="Group_126" data-name="Group 126" transform="translate(-329 -377)">
    <path id="Icon_awesome-image" data-name="Icon awesome-image" d="M24.514,24.787H2.536A2.536,2.536,0,0,1,0,22.251V7.036A2.536,2.536,0,0,1,2.536,4.5H24.514a2.536,2.536,0,0,1,2.536,2.536V22.251A2.536,2.536,0,0,1,24.514,24.787ZM5.917,7.459a2.959,2.959,0,1,0,2.959,2.959A2.959,2.959,0,0,0,5.917,7.459ZM3.381,21.406H23.668V15.489l-4.624-4.624a.634.634,0,0,0-.9,0l-7.159,7.159L8.056,15.092a.634.634,0,0,0-.9,0L3.381,18.87Z" transform="translate(329 372.5)" fill="#fff"/>
  </g>
</svg>
