<svg xmlns="http://www.w3.org/2000/svg" width="45.942" height="24.322" viewBox="0 0 45.942 24.322">
  <g id="Group_124" data-name="Group 124" transform="translate(-61.891 -374.7)">
    <g id="Group_2" data-name="Group 2" transform="translate(61.891 374.7)">
      <path id="Icon_material-android" data-name="Icon material-android" d="M7.054,18.242a1.016,1.016,0,0,0,1.013,1.013H9.081V22.8a1.52,1.52,0,0,0,3.04,0V19.255h2.027V22.8a1.52,1.52,0,1,0,3.04,0V19.255H18.2a1.016,1.016,0,0,0,1.013-1.013V8.107H7.054ZM4.52,8.107A1.518,1.518,0,0,0,3,9.628v7.094a1.52,1.52,0,1,0,3.04,0V9.628A1.518,1.518,0,0,0,4.52,8.107Zm17.228,0a1.518,1.518,0,0,0-1.52,1.52v7.094a1.52,1.52,0,0,0,3.04,0V9.628A1.518,1.518,0,0,0,21.748,8.107ZM16.712,2.189,18.029.872a.5.5,0,0,0,0-.72.5.5,0,0,0-.72,0l-1.5,1.5a5.918,5.918,0,0,0-2.675-.638,6,6,0,0,0-2.7.638L8.929.152a.5.5,0,0,0-.72,0,.5.5,0,0,0,0,.72L9.537,2.2A6.064,6.064,0,0,0,7.054,7.094H19.215A6.046,6.046,0,0,0,16.712,2.189Zm-5.6,2.878H10.094V4.054h1.013Zm5.067,0H15.161V4.054h1.013Z" transform="translate(22.674 0)" fill="#fff"/>
      <path id="Icon_awesome-apple" data-name="Icon awesome-apple" d="M15.231,13.494a4.435,4.435,0,0,1,2.375-4.028,5.1,5.1,0,0,0-4.024-2.119c-1.686-.133-3.53.983-4.2.983-.713,0-2.347-.936-3.629-.936C3.1,7.438.281,9.509.281,13.722A11.84,11.84,0,0,0,.965,17.58c.608,1.743,2.8,6.019,5.092,5.948,1.2-.029,2.043-.85,3.6-.85,1.511,0,2.294.85,3.629.85,2.309-.033,4.294-3.919,4.874-5.667a4.709,4.709,0,0,1-2.931-4.366Zm-2.689-7.8a4.474,4.474,0,0,0,1.14-3.444,5.037,5.037,0,0,0-3.226,1.658A4.544,4.544,0,0,0,9.241,7.323,3.99,3.99,0,0,0,12.542,5.694Z" transform="translate(-0.281 -0.899)" fill="#fff"/>
    </g>
  </g>
</svg>
