<svg xmlns="http://www.w3.org/2000/svg" width="30.087" height="20.058" viewBox="0 0 30.087 20.058">
  <g id="Group_128" data-name="Group 128" transform="translate(-204.913 -512.5)">
    <path id="Icon_awesome-video" data-name="Icon awesome-video" d="M17.561,4.5H2.5A2.5,2.5,0,0,0,0,7V22.061a2.5,2.5,0,0,0,2.5,2.5H17.561a2.5,2.5,0,0,0,2.5-2.5V7A2.5,2.5,0,0,0,17.561,4.5Zm9.893,1.969L21.73,10.418V18.64l5.725,3.944a1.675,1.675,0,0,0,2.633-1.348V7.817A1.676,1.676,0,0,0,27.455,6.469Z" transform="translate(204.913 508)" fill="#fff"/>
  </g>
</svg>
